<mxfile host="65bd71144e">
    <diagram id="GJpbw09InAvtXRfNiCP8" name="Page-1">
        <mxGraphModel dx="796" dy="790" grid="1" gridSize="10" guides="1" tooltips="1" connect="1" arrows="1" fold="1" page="1" pageScale="1" pageWidth="850" pageHeight="1100" math="0" shadow="0">
            <root>
                <mxCell id="0"/>
                <mxCell id="1" parent="0"/>
                <mxCell id="12" style="edgeStyle=none;html=1;entryX=0.5;entryY=0;entryDx=0;entryDy=0;" edge="1" parent="1" source="3" target="11">
                    <mxGeometry relative="1" as="geometry"/>
                </mxCell>
                <mxCell id="3" value="INICIO" style="ellipse;whiteSpace=wrap;html=1;" parent="1" vertex="1">
                    <mxGeometry x="320" y="20" width="170" height="70" as="geometry"/>
                </mxCell>
                <mxCell id="14" style="edgeStyle=none;html=1;entryX=0.5;entryY=0;entryDx=0;entryDy=0;" edge="1" parent="1" source="4" target="5">
                    <mxGeometry relative="1" as="geometry"/>
                </mxCell>
                <mxCell id="4" value="&#10;&#10;&lt;div style=&quot;color: rgb(86, 88, 105); background-color: rgb(250, 251, 252); font-family: &amp;quot;victor mono&amp;quot;, &amp;quot;courier new&amp;quot;, monospace, consolas, &amp;quot;courier new&amp;quot;, monospace; font-weight: normal; font-size: 14px; line-height: 19px;&quot;&gt;&lt;div&gt;&lt;span style=&quot;color: #565869&quot;&gt;consumption&lt;/span&gt;&lt;/div&gt;&lt;/div&gt;&#10;&#10;" style="shape=parallelogram;perimeter=parallelogramPerimeter;whiteSpace=wrap;html=1;fixedSize=1;" parent="1" vertex="1">
                    <mxGeometry x="345" y="210" width="120" height="60" as="geometry"/>
                </mxCell>
                <mxCell id="15" style="edgeStyle=none;html=1;entryX=0.5;entryY=0;entryDx=0;entryDy=0;" edge="1" parent="1" source="5" target="7">
                    <mxGeometry relative="1" as="geometry"/>
                </mxCell>
                <mxCell id="5" value="&#10;&#10;&lt;div style=&quot;color: rgb(86, 88, 105); background-color: rgb(250, 251, 252); font-family: &amp;quot;victor mono&amp;quot;, &amp;quot;courier new&amp;quot;, monospace, consolas, &amp;quot;courier new&amp;quot;, monospace; font-weight: normal; font-size: 14px; line-height: 19px;&quot;&gt;&lt;div&gt;&lt;span style=&quot;color: #565869&quot;&gt;totalPay&lt;/span&gt;&lt;span style=&quot;color: #565869&quot;&gt; &lt;/span&gt;&lt;span style=&quot;color: #777777&quot;&gt;=&lt;/span&gt;&lt;span style=&quot;color: #565869&quot;&gt; &lt;/span&gt;&lt;span style=&quot;color: #777777&quot;&gt;(&lt;/span&gt;&lt;span style=&quot;color: #565869&quot;&gt;consumption&lt;/span&gt;&lt;span style=&quot;color: #565869&quot;&gt; &lt;/span&gt;&lt;span style=&quot;color: #777777&quot;&gt;*&lt;/span&gt;&lt;span style=&quot;color: #565869&quot;&gt; &lt;/span&gt;&lt;span style=&quot;color: #565869&quot;&gt;priceLt&lt;/span&gt;&lt;span style=&quot;color: #777777&quot;&gt;)&lt;/span&gt;&lt;span style=&quot;color: #565869&quot;&gt; &lt;/span&gt;&lt;span style=&quot;color: #777777&quot;&gt;*&lt;/span&gt;&lt;span style=&quot;color: #565869&quot;&gt; &lt;/span&gt;&lt;span style=&quot;color: #565869&quot;&gt;ltGallon&lt;/span&gt;&lt;span style=&quot;color: #ff1277&quot;&gt;;&lt;/span&gt;&lt;/div&gt;&lt;/div&gt;&#10;&#10;" style="shape=process;whiteSpace=wrap;html=1;backgroundOutline=1;size=0.027777777777777776;" parent="1" vertex="1">
                    <mxGeometry x="250" y="300" width="310" height="60" as="geometry"/>
                </mxCell>
                <mxCell id="16" value="" style="edgeStyle=none;html=1;" edge="1" parent="1" source="7" target="10">
                    <mxGeometry relative="1" as="geometry"/>
                </mxCell>
                <mxCell id="7" value="&#10;&#10;&lt;div style=&quot;color: rgb(86, 88, 105); background-color: rgb(250, 251, 252); font-family: &amp;quot;victor mono&amp;quot;, &amp;quot;courier new&amp;quot;, monospace, consolas, &amp;quot;courier new&amp;quot;, monospace; font-weight: normal; font-size: 14px; line-height: 19px;&quot;&gt;&lt;div&gt;&lt;span style=&quot;color: #f767bb&quot;&gt;F&lt;/span&gt;&lt;span style=&quot;color: #cf9c00&quot;&gt;'Total a Pagar: &lt;/span&gt;&lt;span style=&quot;color: #565869&quot;&gt;{&lt;/span&gt;&lt;span style=&quot;color: #565869&quot;&gt;totalPay&lt;/span&gt;&lt;span style=&quot;color: #f767bb&quot;&gt;:.2f&lt;/span&gt;&lt;span style=&quot;color: #565869&quot;&gt;}&lt;/span&gt;&lt;span style=&quot;color: #cf9c00&quot;&gt;'&lt;/span&gt;&lt;/div&gt;&lt;/div&gt;&#10;&#10;" style="shape=document;whiteSpace=wrap;html=1;boundedLbl=1;" parent="1" vertex="1">
                    <mxGeometry x="280" y="390" width="250" height="80" as="geometry"/>
                </mxCell>
                <mxCell id="10" value="FINAL" style="ellipse;whiteSpace=wrap;html=1;" parent="1" vertex="1">
                    <mxGeometry x="320" y="500" width="170" height="70" as="geometry"/>
                </mxCell>
                <mxCell id="13" style="edgeStyle=none;html=1;entryX=0.5;entryY=0;entryDx=0;entryDy=0;" edge="1" parent="1" source="11" target="4">
                    <mxGeometry relative="1" as="geometry"/>
                </mxCell>
                <mxCell id="11" value="&lt;div style=&quot;color: rgb(86 , 88 , 105) ; background-color: rgb(250 , 251 , 252) ; font-family: &amp;#34;victor mono&amp;#34; , &amp;#34;courier new&amp;#34; , monospace , &amp;#34;consolas&amp;#34; , &amp;#34;courier new&amp;#34; , monospace ; font-size: 14px ; line-height: 19px&quot;&gt;&lt;div&gt;ltGallon &lt;span style=&quot;color: #777777&quot;&gt;=&lt;/span&gt; &lt;span style=&quot;color: #ff5c57&quot;&gt;3.74&lt;/span&gt;&lt;span style=&quot;color: #ff1277&quot;&gt;;&lt;/span&gt;&lt;/div&gt;&lt;div&gt;priceLt &lt;span style=&quot;color: #777777&quot;&gt;=&lt;/span&gt; &lt;span style=&quot;color: #ff5c57&quot;&gt;4.04&lt;/span&gt;&lt;span style=&quot;color: #ff1277&quot;&gt;;&lt;/span&gt;&lt;/div&gt;&lt;/div&gt;" style="rounded=0;whiteSpace=wrap;html=1;" parent="1" vertex="1">
                    <mxGeometry x="330" y="120" width="150" height="60" as="geometry"/>
                </mxCell>
            </root>
        </mxGraphModel>
    </diagram>
</mxfile>